<svg width="35" height="33" viewBox="0 0 35 33" fill="none" xmlns="http://www.w3.org/2000/svg">
<path fill-rule="evenodd" clip-rule="evenodd" d="M9.57248 28.253C10.7625 28.253 11.7308 29.2197 11.7308 30.4097C11.7308 31.5997 10.7625 32.568 9.57248 32.568C8.38248 32.568 7.41582 31.5997 7.41582 30.4097C7.41582 29.2197 8.38248 28.253 9.57248 28.253ZM28.373 28.253C29.5646 28.253 30.533 29.2197 30.533 30.4097C30.533 31.5997 29.5646 32.568 28.373 32.568C27.183 32.568 26.2163 31.5997 26.2163 30.4097C26.2163 29.2197 27.183 28.253 28.373 28.253ZM2.44615 0.0156897L5.91282 0.61569C6.47115 0.714023 6.89615 1.17736 6.94448 1.74402L7.33615 6.41236L8.79257 6.41298C9.03023 6.41309 9.26537 6.41319 9.49802 6.4133L12.1719 6.41457C12.385 6.41468 12.5957 6.41478 12.8041 6.41489L15.7565 6.41651C15.9419 6.41662 16.1252 6.41673 16.3062 6.41684L18.3751 6.41816C18.539 6.41827 18.7008 6.41838 18.8606 6.41849L20.6803 6.41983C20.8239 6.41994 20.9657 6.42006 21.1054 6.42017L22.692 6.42153C22.8168 6.42165 22.9398 6.42176 23.0609 6.42188L24.1037 6.42291C24.2144 6.42303 24.3233 6.42314 24.4306 6.42326L25.6382 6.42466C25.7323 6.42478 25.8249 6.4249 25.916 6.42501L26.9356 6.42644C27.0146 6.42656 27.0922 6.42668 27.1684 6.4268L27.8164 6.42788C27.8843 6.428 27.9509 6.42812 28.0162 6.42824L28.738 6.4297C28.7932 6.42983 28.8472 6.42995 28.9 6.43007L29.3443 6.43118C29.3903 6.43131 29.4351 6.43143 29.479 6.43156L29.9552 6.43306C29.9909 6.43319 30.0257 6.43331 30.0595 6.43344L30.3391 6.43458C30.3675 6.43471 30.3951 6.43483 30.4218 6.43496L30.7047 6.4365C30.7253 6.43663 30.7451 6.43676 30.7642 6.43689L30.9184 6.43806C30.9336 6.43819 30.9482 6.43832 30.9622 6.43845L31.0732 6.43964C31.0839 6.43977 31.0942 6.4399 31.1039 6.44003L31.1794 6.44123C31.1865 6.44136 31.1933 6.4415 31.1996 6.44163L31.2474 6.44284C31.2517 6.44297 31.2558 6.44311 31.2596 6.44324L31.2942 6.44488C31.2963 6.44501 31.2983 6.44515 31.3001 6.44529C31.3164 6.4468 31.3187 6.44708 31.3211 6.44736C32.2495 6.58236 33.0661 7.06736 33.6228 7.81402C34.1795 8.55902 34.4128 9.47736 34.2795 10.3974L32.6978 21.3274C32.3995 23.4074 30.5928 24.9757 28.4928 24.9757H10.2912C8.09615 24.9757 6.23782 23.2624 6.05948 21.0707L4.53282 2.91402L2.02115 2.48069C1.33949 2.36069 0.884485 1.71569 1.00115 1.03402C1.12115 0.352356 1.77949 -0.090977 2.44615 0.0156897ZM8.4582 8.91292L7.54615 8.91236L8.55115 20.8657C8.62448 21.7857 9.37615 22.4757 10.2945 22.4757H28.4895C29.3578 22.4757 30.0995 21.829 30.2228 20.9707L31.8061 10.039C31.8428 9.77902 31.7778 9.51902 31.6195 9.30902C31.4628 9.09736 31.2328 8.96069 30.9728 8.92402C30.9608 8.92448 30.932 8.9249 30.8873 8.92529L30.706 8.92632C30.6681 8.92648 30.6264 8.92662 30.581 8.92676L29.6368 8.92819C29.5571 8.92825 29.4743 8.9283 29.3884 8.92834L27.1685 8.92825C27.0446 8.9282 26.9184 8.92815 26.7899 8.92809L24.2564 8.92656C24.1046 8.92645 23.9512 8.92633 23.7962 8.92621L22.3626 8.92506C22.1993 8.92493 22.0348 8.92479 21.8692 8.92465L20.3507 8.92331C20.1792 8.92316 20.0069 8.923 19.8339 8.92284L18.7879 8.92188C18.6124 8.92172 18.4364 8.92156 18.26 8.92139L16.6638 8.9199C16.4858 8.91973 16.3078 8.91957 16.1297 8.9194L15.0619 8.91841C14.8842 8.91825 14.7067 8.91808 14.5296 8.91792L13.4709 8.91696C13.2953 8.9168 13.1202 8.91664 12.9458 8.91649L11.3949 8.91516C11.2251 8.91501 11.0561 8.91487 10.8882 8.91474L8.9283 8.91325C8.77014 8.91314 8.61341 8.91303 8.4582 8.91292ZM25.8126 12.5729C26.5026 12.5729 27.0626 13.1329 27.0626 13.8229C27.0626 14.5129 26.5026 15.0729 25.8126 15.0729H21.1926C20.501 15.0729 19.9426 14.5129 19.9426 13.8229C19.9426 13.1329 20.501 12.5729 21.1926 12.5729H25.8126Z" fill="white"/>
</svg>
