<svg width="34" height="30" viewBox="0 0 34 30" fill="none" xmlns="http://www.w3.org/2000/svg">
<path d="M27.9351 18.3659C31.1018 18.3659 33.6666 20.8876 33.6666 23.9987C33.6666 27.108 31.1018 29.6296 27.9351 29.6296C24.7703 29.6296 22.2037 27.108 22.2037 23.9987C22.2037 20.8876 24.7703 18.3659 27.9351 18.3659ZM13.8054 21.5966C15.1924 21.5966 16.3183 22.7028 16.3183 24.0655C16.3183 25.4263 15.1924 26.5343 13.8054 26.5343H2.8462C1.45917 26.5343 0.333252 25.4263 0.333252 24.0655C0.333252 22.7028 1.45917 21.5966 2.8462 21.5966H13.8054ZM6.0647 0C9.23135 0 11.7962 2.52164 11.7962 5.63093C11.7962 8.74205 9.23135 11.2637 6.0647 11.2637C2.8999 11.2637 0.333252 8.74205 0.333252 5.63093C0.333252 2.52164 2.8999 0 6.0647 0ZM31.1555 3.16388C32.5407 3.16388 33.6666 4.27005 33.6666 5.63093C33.6666 6.99364 32.5407 8.09981 31.1555 8.09981H20.1963C18.8093 8.09981 17.6833 6.99364 17.6833 5.63093C17.6833 4.27005 18.8093 3.16388 20.1963 3.16388H31.1555Z" fill="black"/>
</svg>
