<svg width="59" height="53" viewBox="0 0 59 53" fill="none" xmlns="http://www.w3.org/2000/svg">
<path fill-rule="evenodd" clip-rule="evenodd" d="M58.8228 38.4729C58.5048 38.3443 51.8574 35.6557 51.785 27.865C51.7265 21.3666 56.9872 18.1729 57.4388 17.8988C57.4483 17.893 57.4557 17.8885 57.4609 17.8853C54.3742 13.3734 49.5674 12.7537 47.855 12.6826C45.3529 12.4294 42.9256 13.3856 40.9433 14.1664C39.6848 14.6622 38.6057 15.0872 37.8009 15.0872C37.5388 15.0872 37.2587 15.0498 36.9625 14.9845C36.5618 14.8112 36.1425 14.6836 35.7134 14.604C35.341 14.4686 34.9519 14.3145 34.5485 14.1547C32.9184 13.509 31.0562 12.7714 29.1328 12.8081C28.7569 12.8135 28.3836 12.8364 28.0136 12.8762C27.9569 11.4641 27.374 10.098 26.3864 9.07858C25.3052 7.97141 23.7972 7.33441 22.2459 7.33441H19.531C17.9905 7.33441 16.5432 7.93458 15.4534 9.02658C14.3679 10.1207 13.772 11.5702 13.7807 13.0804C13.759 14.4497 12.6302 15.5634 11.2804 15.5634C10.8665 15.5591 10.4592 15.4464 10.0844 15.2232C7.33053 13.6416 3.79886 14.5992 2.23669 17.3162L0.767693 19.7277C-0.813974 22.4751 0.12636 26.0046 2.87153 27.5992C3.64936 28.0477 4.13253 28.8862 4.13253 29.7832C4.13253 30.6802 3.64936 31.5166 2.87153 31.9651C0.128526 33.5511 -0.813974 37.0719 0.76986 39.8192L2.12403 42.1527C2.86503 43.4852 4.12819 44.4906 5.59069 44.9044C7.05536 45.3161 8.65653 45.1319 10.0172 44.3736C10.5849 44.0442 11.276 43.9511 11.9065 44.1201C12.5414 44.2891 13.0917 44.7137 13.4319 45.3074C13.642 45.6606 13.7547 46.0679 13.759 46.4601C13.759 49.6429 16.3482 52.2299 19.531 52.2299H22.2459C23.6305 52.2299 24.9046 51.7381 25.9016 50.9185C27.1018 51.8876 28.42 52.502 29.8866 52.4466C31.4326 52.3859 32.5315 51.9185 33.6679 51.4352C34.9784 50.8778 36.3385 50.2992 38.4913 50.2992C40.5479 50.2992 41.8484 50.8611 43.0989 51.4013C44.293 51.9173 45.4416 52.4135 47.1594 52.3818C50.7384 52.3159 53.0103 49.1325 55.1993 45.9374C57.6503 42.3604 58.707 38.8937 58.8252 38.5058C58.8291 38.4929 58.832 38.4834 58.8339 38.4775C58.8325 38.4768 58.8288 38.4753 58.8228 38.4729ZM23.6237 48.5696C24.3356 49.4495 25.0918 50.2647 25.9016 50.9185C27.1853 49.8633 28.0093 48.2646 28.0179 46.4731C28.0135 45.8014 28.2735 45.1687 28.748 44.6942C29.216 44.2284 29.8595 43.9619 30.4857 43.9619H30.4987C30.919 43.9727 31.3415 44.0876 31.7077 44.2977C34.4529 45.8837 37.9824 44.9412 39.5662 42.2199L41.0049 39.8236C41.7697 38.5084 41.9842 36.9137 41.592 35.4447C41.1999 33.9736 40.2184 32.6996 38.9032 31.9434C38.3204 31.6097 37.9065 31.0702 37.7332 30.4202C37.5642 29.7832 37.6574 29.0899 37.9932 28.5071C38.2099 28.1301 38.524 27.8181 38.9119 27.5949C41.5769 26.0371 42.5345 22.6246 41.1002 19.9141C41.0742 19.8512 41.0439 19.7906 41.0092 19.7277L39.6594 17.3899C39.019 16.2773 38.0605 15.4594 36.9625 14.9845C36.5726 14.8986 36.1548 14.7645 35.7134 14.604C34.41 14.3622 33.0154 14.5633 31.7727 15.2731C31.1985 15.6132 30.5225 15.6999 29.8769 15.5396C29.2312 15.3706 28.6874 14.9589 28.3429 14.3739C28.1349 14.0207 28.02 13.6177 28.0157 13.2689C28.0195 13.1378 28.0188 13.0068 28.0136 12.8762C26.9003 12.9959 25.8176 13.2684 24.789 13.6772C24.7763 13.5317 24.7691 13.3853 24.7679 13.2386C24.7874 12.4976 24.5274 11.8324 24.055 11.3449C23.5849 10.8596 22.924 10.5844 22.2459 10.5844H19.531C18.8594 10.5844 18.231 10.8466 17.7565 11.3189C17.2842 11.7934 17.0264 12.4239 17.0307 13.0956C16.9852 16.2632 14.396 18.8134 11.2609 18.8134C10.2555 18.8026 9.28703 18.5317 8.44636 18.0291C7.26553 17.3574 5.72286 17.7712 5.03169 18.9737L3.56486 21.3852C2.89319 22.5509 3.30486 24.0914 4.50086 24.7869C6.27536 25.8139 7.38253 27.7292 7.38253 29.7832C7.38253 31.8372 6.27536 33.7504 4.49653 34.7796C3.30703 35.4686 2.89536 37.0004 3.58436 38.1921L4.95153 40.5494C5.28953 41.1582 5.84203 41.5981 6.48119 41.7779C7.11819 41.9556 7.82019 41.8797 8.40519 41.5547C9.26536 41.0499 10.2664 40.7877 11.2717 40.7877C11.7679 40.7877 12.264 40.8506 12.7494 40.9806C14.214 41.3749 15.4859 42.3542 16.2399 43.6694C16.7295 44.4949 17.0004 45.4591 17.009 46.4427C17.009 47.8511 18.14 48.9799 19.531 48.9799H22.2459C22.7535 48.9799 23.2271 48.829 23.6237 48.5696ZM17.1662 36.0963C18.183 39.7952 19.8049 43.2247 21.5941 45.808C22.232 46.7281 22.9053 47.6818 23.6237 48.5696C24.3086 48.1216 24.7637 47.3499 24.7679 46.4731C24.7592 44.9434 25.3572 43.4896 26.4514 42.3954C27.5304 41.3164 29.0384 40.6686 30.5464 40.7119C31.5344 40.7357 32.4855 41.0022 33.324 41.4789C34.5309 42.1701 36.0714 41.7584 36.769 40.5667L38.2077 38.1682C38.5284 37.6157 38.6215 36.9224 38.4504 36.2832C38.2814 35.6441 37.8567 35.0894 37.2847 34.7622C35.9457 33.9909 34.9902 32.7472 34.5937 31.2566C34.2015 29.7941 34.416 28.1972 35.1809 26.8821C35.6792 26.0154 36.4094 25.2852 37.2847 24.7826C38.459 24.0957 38.8707 22.5596 38.1882 21.3636C38.16 21.3159 38.134 21.2661 38.1124 21.2141L36.8427 19.0127C36.1515 17.8102 34.6132 17.3964 33.4064 18.0832C32.102 18.8546 30.5507 19.0756 29.06 18.6834C27.5715 18.2977 26.3235 17.3552 25.5457 16.0249C25.1215 15.3168 24.8622 14.5097 24.789 13.6772C22.1034 14.7449 19.7876 16.743 18.2653 19.3819C17.4587 20.7804 16.8974 22.2963 16.5442 23.8807C14.7361 25.2188 13.5616 27.367 13.5616 29.7835C13.5616 32.467 15.0101 34.8178 17.1662 36.0963ZM17.1662 36.0963C16.0666 32.0962 15.6748 27.781 16.5442 23.8807C17.7629 22.9788 19.2693 22.445 20.898 22.445C24.9431 22.445 28.2343 25.7383 28.2343 29.7835C28.2343 33.8286 24.9431 37.1176 20.898 37.1176C19.5364 37.1176 18.2602 36.745 17.1662 36.0963ZM47.9075 0C48.2442 3.07094 47.0098 6.15734 45.1757 8.37443C43.3416 10.5929 40.3313 12.316 37.3846 12.0883C36.983 9.07816 38.4713 5.93744 40.1707 3.97518C42.067 1.75931 45.2638 0.106109 47.9075 0ZM16.8116 29.7835C16.8116 27.5301 18.6446 25.695 20.898 25.695C23.1513 25.695 24.9843 27.5301 24.9843 29.7835C24.9843 32.0368 23.1513 33.8676 20.898 33.8676C18.6446 33.8676 16.8116 32.0368 16.8116 29.7835Z" fill="white"/>
</svg>
