<svg width="35" height="37" viewBox="0 0 35 37" fill="none" xmlns="http://www.w3.org/2000/svg">
<path fill-rule="evenodd" clip-rule="evenodd" d="M19.8613 24.4855C21.868 24.4855 23.5013 26.1072 23.5013 28.1005V33.2272C23.5013 33.6555 23.8447 33.9988 24.2847 34.0088H27.4613C29.9647 34.0088 31.9997 31.9988 31.9997 29.5288V14.9888C31.988 14.1388 31.583 13.3388 30.888 12.8072L19.8997 4.04383C18.4247 2.8755 16.3613 2.8755 14.8813 4.04717L3.96799 12.8038C3.24633 13.3522 2.84133 14.1522 2.83299 15.0172V29.5288C2.83299 31.9988 4.86799 34.0088 7.37132 34.0088H10.578C11.0297 34.0088 11.3963 33.6505 11.3963 33.2105C11.3963 33.1138 11.408 33.0172 11.428 32.9255V28.1005C11.428 26.1188 13.0513 24.4988 15.043 24.4855H19.8613ZM27.4613 36.5088H24.2547C22.418 36.4655 21.0013 35.0238 21.0013 33.2272V28.1005C21.0013 27.4855 20.4897 26.9855 19.8613 26.9855H15.0513C14.4363 26.9888 13.928 27.4905 13.928 28.1005V33.2105C13.928 33.3355 13.9113 33.4555 13.8763 33.5688C13.6963 35.2188 12.2863 36.5088 10.578 36.5088H7.37132C3.48966 36.5088 0.332993 33.3772 0.332993 29.5288V15.0055C0.349659 13.3488 1.11299 11.8322 2.43133 10.8338L13.323 2.09217C15.7213 0.192165 19.063 0.192165 21.4563 2.08883L32.4263 10.8388C33.7147 11.8205 34.478 13.3338 34.4997 14.9705V29.5288C34.4997 33.3772 31.343 36.5088 27.4613 36.5088Z" fill="white"/>
</svg>
