<svg width="33" height="34" viewBox="0 0 33 34" fill="none" xmlns="http://www.w3.org/2000/svg">
<path d="M11.5272 31.593V26.4968C11.5272 25.1959 12.5895 24.1413 13.9 24.1413H18.6903C19.3196 24.1413 19.9231 24.3894 20.3681 24.8312C20.813 25.2729 21.063 25.872 21.063 26.4968V31.593C21.059 32.1338 21.2727 32.6539 21.6565 33.0377C22.0404 33.4215 22.5627 33.6374 23.1075 33.6374H26.3756C27.902 33.6413 29.3672 33.0421 30.4479 31.9721C31.5285 30.902 32.1359 29.449 32.1359 27.9338V13.4155C32.1359 12.1915 31.5894 11.0305 30.6436 10.2452L19.5259 1.43053C17.592 -0.114987 14.8211 -0.065086 12.9449 1.54904L2.08093 10.2452C1.09047 11.0073 0.498492 12.1718 0.469238 13.4155V27.919C0.469238 31.0772 3.04821 33.6374 6.22953 33.6374H9.42306C10.5546 33.6374 11.4742 32.7311 11.4824 31.6078L11.5272 31.593Z" fill="white"/>
</svg>
