<svg width="250" height="53" viewBox="0 0 250 53" fill="none" xmlns="http://www.w3.org/2000/svg">
<path d="M97.7207 40L95.7871 33.8477H86.875L84.9414 40H79.4922L88.2988 14.6348H94.5391L103.363 40H97.7207ZM91.2695 19.4863L88.0176 29.875H94.6445L91.3926 19.4863H91.2695ZM116.529 20.8574C118.92 20.8574 120.801 21.7188 122.172 23.4414C123.555 25.1641 124.246 27.543 124.246 30.5781C124.246 33.6016 123.566 35.9805 122.207 37.7148C120.848 39.4375 118.984 40.2988 116.617 40.2988C115.27 40.2988 114.08 39.9941 113.049 39.3848C112.029 38.7637 111.268 37.9141 110.764 36.8359H110.658V46.1523H105.525V21.1562H110.588V24.4434H110.693C111.209 23.3184 111.971 22.4395 112.979 21.8066C113.998 21.1738 115.182 20.8574 116.529 20.8574ZM114.807 36.168C116.084 36.168 117.098 35.6641 117.848 34.6562C118.609 33.6484 118.99 32.2891 118.99 30.5781C118.99 28.8672 118.609 27.5078 117.848 26.5C117.098 25.4805 116.084 24.9707 114.807 24.9707C113.553 24.9707 112.545 25.4863 111.783 26.5176C111.021 27.5371 110.641 28.8906 110.641 30.5781C110.641 32.2773 111.016 33.6367 111.766 34.6562C112.527 35.6641 113.541 36.168 114.807 36.168ZM137.904 20.8574C140.295 20.8574 142.176 21.7188 143.547 23.4414C144.93 25.1641 145.621 27.543 145.621 30.5781C145.621 33.6016 144.941 35.9805 143.582 37.7148C142.223 39.4375 140.359 40.2988 137.992 40.2988C136.645 40.2988 135.455 39.9941 134.424 39.3848C133.404 38.7637 132.643 37.9141 132.139 36.8359H132.033V46.1523H126.9V21.1562H131.963V24.4434H132.068C132.584 23.3184 133.346 22.4395 134.354 21.8066C135.373 21.1738 136.557 20.8574 137.904 20.8574ZM136.182 36.168C137.459 36.168 138.473 35.6641 139.223 34.6562C139.984 33.6484 140.365 32.2891 140.365 30.5781C140.365 28.8672 139.984 27.5078 139.223 26.5C138.473 25.4805 137.459 24.9707 136.182 24.9707C134.928 24.9707 133.92 25.4863 133.158 26.5176C132.396 27.5371 132.016 28.8906 132.016 30.5781C132.016 32.2773 132.391 33.6367 133.141 34.6562C133.902 35.6641 134.916 36.168 136.182 36.168ZM148.398 40V14.6348H153.531V40H148.398ZM165.449 24.5488C164.336 24.5488 163.404 24.9297 162.654 25.6914C161.916 26.4531 161.5 27.4258 161.406 28.6094H169.404C169.346 27.4023 168.953 26.4238 168.227 25.6738C167.512 24.9238 166.586 24.5488 165.449 24.5488ZM169.475 34.2344H174.186C173.904 36.0859 172.979 37.5801 171.408 38.7168C169.85 39.8418 167.91 40.4043 165.59 40.4043C162.695 40.4043 160.422 39.5371 158.77 37.8027C157.129 36.0684 156.309 33.6895 156.309 30.666C156.309 27.6543 157.129 25.252 158.77 23.459C160.41 21.6543 162.619 20.752 165.396 20.752C168.127 20.752 170.301 21.6074 171.918 23.3184C173.535 25.0293 174.344 27.3203 174.344 30.1914V31.7559H161.354V32.0723C161.354 33.4199 161.746 34.5156 162.531 35.3594C163.328 36.1914 164.377 36.6074 165.678 36.6074C166.615 36.6074 167.424 36.3965 168.104 35.9746C168.783 35.541 169.24 34.9609 169.475 34.2344ZM184.662 40H179.354V19.0117H172.023V14.6348H192.01V19.0117H184.662V40ZM198.812 24.5488C197.699 24.5488 196.768 24.9297 196.018 25.6914C195.279 26.4531 194.863 27.4258 194.77 28.6094H202.768C202.709 27.4023 202.316 26.4238 201.59 25.6738C200.875 24.9238 199.949 24.5488 198.812 24.5488ZM202.838 34.2344H207.549C207.268 36.0859 206.342 37.5801 204.771 38.7168C203.213 39.8418 201.273 40.4043 198.953 40.4043C196.059 40.4043 193.785 39.5371 192.133 37.8027C190.492 36.0684 189.672 33.6895 189.672 30.666C189.672 27.6543 190.492 25.252 192.133 23.459C193.773 21.6543 195.982 20.752 198.76 20.752C201.49 20.752 203.664 21.6074 205.281 23.3184C206.898 25.0293 207.707 27.3203 207.707 30.1914V31.7559H194.717V32.0723C194.717 33.4199 195.109 34.5156 195.895 35.3594C196.691 36.1914 197.74 36.6074 199.041 36.6074C199.979 36.6074 200.787 36.3965 201.467 35.9746C202.146 35.541 202.604 34.9609 202.838 34.2344ZM227.482 28.1699H222.719C222.566 27.1504 222.162 26.3301 221.506 25.709C220.861 25.0879 220.023 24.7773 218.992 24.7773C217.715 24.7773 216.707 25.293 215.969 26.3242C215.242 27.3438 214.879 28.7559 214.879 30.5605C214.879 32.4004 215.242 33.8301 215.969 34.8496C216.707 35.8691 217.721 36.3789 219.01 36.3789C220.029 36.3789 220.861 36.0918 221.506 35.5176C222.15 34.9316 222.555 34.123 222.719 33.0918H227.5C227.371 35.3184 226.533 37.0938 224.986 38.418C223.439 39.7422 221.43 40.4043 218.957 40.4043C216.098 40.4043 213.836 39.5312 212.172 37.7852C210.508 36.0273 209.676 33.6191 209.676 30.5605C209.676 27.5488 210.508 25.1641 212.172 23.4062C213.848 21.6367 216.098 20.752 218.922 20.752C221.43 20.752 223.451 21.4434 224.986 22.8262C226.533 24.209 227.365 25.9902 227.482 28.1699ZM230.102 40V14.6348H235.146V24.5137H235.252C235.756 23.3184 236.512 22.4043 237.52 21.7715C238.539 21.127 239.758 20.8047 241.176 20.8047C243.25 20.8047 244.861 21.4375 246.01 22.7031C247.17 23.957 247.75 25.6797 247.75 27.8711V40H242.617V28.9609C242.617 27.7305 242.312 26.7754 241.703 26.0957C241.105 25.4043 240.232 25.0586 239.084 25.0586C237.889 25.0586 236.945 25.4453 236.254 26.2188C235.574 26.9805 235.234 27.9883 235.234 29.2422V40H230.102Z" fill="white"/>
<path fill-rule="evenodd" clip-rule="evenodd" d="M58.8228 38.4729C58.5048 38.3443 51.8574 35.6557 51.785 27.865C51.7265 21.3666 56.9872 18.1729 57.4388 17.8988C57.4483 17.893 57.4557 17.8885 57.4609 17.8853C54.3742 13.3734 49.5674 12.7537 47.855 12.6826C45.3529 12.4294 42.9256 13.3856 40.9433 14.1664C39.6848 14.6622 38.6057 15.0872 37.8009 15.0872C37.5388 15.0872 37.2587 15.0498 36.9625 14.9845C36.5618 14.8112 36.1425 14.6836 35.7134 14.604C35.341 14.4686 34.9519 14.3145 34.5485 14.1547C32.9184 13.509 31.0562 12.7714 29.1328 12.8081C28.7569 12.8135 28.3836 12.8364 28.0136 12.8762C27.9569 11.4641 27.374 10.098 26.3864 9.07858C25.3052 7.97141 23.7972 7.33441 22.2459 7.33441H19.531C17.9905 7.33441 16.5432 7.93458 15.4534 9.02658C14.3679 10.1207 13.772 11.5702 13.7807 13.0804C13.759 14.4497 12.6302 15.5634 11.2804 15.5634C10.8665 15.5591 10.4592 15.4464 10.0844 15.2232C7.33053 13.6416 3.79886 14.5992 2.23669 17.3162L0.767693 19.7277C-0.813974 22.4751 0.12636 26.0046 2.87153 27.5992C3.64936 28.0477 4.13253 28.8862 4.13253 29.7832C4.13253 30.6802 3.64936 31.5166 2.87153 31.9651C0.128526 33.5511 -0.813974 37.0719 0.76986 39.8192L2.12403 42.1527C2.86503 43.4852 4.12819 44.4906 5.59069 44.9044C7.05536 45.3161 8.65653 45.1319 10.0172 44.3736C10.5849 44.0442 11.276 43.9511 11.9065 44.1201C12.5414 44.2891 13.0917 44.7137 13.4319 45.3074C13.642 45.6606 13.7547 46.0679 13.759 46.4601C13.759 49.6429 16.3482 52.2299 19.531 52.2299H22.2459C23.6305 52.2299 24.9046 51.7381 25.9016 50.9185C27.1018 51.8876 28.42 52.502 29.8866 52.4466C31.4326 52.3859 32.5315 51.9185 33.6679 51.4352C34.9784 50.8778 36.3385 50.2992 38.4913 50.2992C40.5479 50.2992 41.8484 50.8611 43.0989 51.4013C44.293 51.9173 45.4416 52.4135 47.1594 52.3818C50.7384 52.3159 53.0103 49.1325 55.1993 45.9374C57.6503 42.3604 58.707 38.8937 58.8252 38.5058C58.8291 38.4929 58.832 38.4834 58.8339 38.4775C58.8325 38.4768 58.8288 38.4753 58.8228 38.4729ZM23.6237 48.5696C24.3356 49.4495 25.0918 50.2647 25.9016 50.9185C27.1853 49.8633 28.0093 48.2646 28.0179 46.4731C28.0135 45.8014 28.2735 45.1687 28.748 44.6942C29.216 44.2284 29.8595 43.9619 30.4857 43.9619H30.4987C30.919 43.9727 31.3415 44.0876 31.7077 44.2977C34.4529 45.8837 37.9824 44.9412 39.5662 42.2199L41.0049 39.8236C41.7697 38.5084 41.9842 36.9137 41.592 35.4447C41.1999 33.9736 40.2184 32.6996 38.9032 31.9434C38.3204 31.6097 37.9065 31.0702 37.7332 30.4202C37.5642 29.7832 37.6574 29.0899 37.9932 28.5071C38.2099 28.1301 38.524 27.8181 38.9119 27.5949C41.5769 26.0371 42.5345 22.6246 41.1002 19.9141C41.0742 19.8512 41.0439 19.7906 41.0092 19.7277L39.6594 17.3899C39.019 16.2773 38.0605 15.4594 36.9625 14.9845C36.5726 14.8986 36.1548 14.7645 35.7134 14.604C34.41 14.3622 33.0154 14.5633 31.7727 15.2731C31.1985 15.6132 30.5225 15.6999 29.8769 15.5396C29.2312 15.3706 28.6874 14.9589 28.3429 14.3739C28.1349 14.0207 28.02 13.6177 28.0157 13.2689C28.0195 13.1378 28.0188 13.0068 28.0136 12.8762C26.9003 12.9959 25.8176 13.2684 24.789 13.6772C24.7763 13.5317 24.7691 13.3853 24.7679 13.2386C24.7874 12.4976 24.5274 11.8324 24.055 11.3449C23.5849 10.8596 22.924 10.5844 22.2459 10.5844H19.531C18.8594 10.5844 18.231 10.8466 17.7565 11.3189C17.2842 11.7934 17.0264 12.4239 17.0307 13.0956C16.9852 16.2632 14.396 18.8134 11.2609 18.8134C10.2555 18.8026 9.28703 18.5317 8.44636 18.0291C7.26553 17.3574 5.72286 17.7712 5.03169 18.9737L3.56486 21.3852C2.89319 22.5509 3.30486 24.0914 4.50086 24.7869C6.27536 25.8139 7.38253 27.7292 7.38253 29.7832C7.38253 31.8372 6.27536 33.7504 4.49653 34.7796C3.30703 35.4686 2.89536 37.0004 3.58436 38.1921L4.95153 40.5494C5.28953 41.1582 5.84203 41.5981 6.48119 41.7779C7.11819 41.9556 7.82019 41.8797 8.40519 41.5547C9.26536 41.0499 10.2664 40.7877 11.2717 40.7877C11.7679 40.7877 12.264 40.8506 12.7494 40.9806C14.214 41.3749 15.4859 42.3542 16.2399 43.6694C16.7295 44.4949 17.0004 45.4591 17.009 46.4427C17.009 47.8511 18.14 48.9799 19.531 48.9799H22.2459C22.7535 48.9799 23.2271 48.829 23.6237 48.5696ZM17.1662 36.0963C18.183 39.7952 19.8049 43.2247 21.5941 45.808C22.232 46.7281 22.9053 47.6818 23.6237 48.5696C24.3086 48.1216 24.7637 47.3499 24.7679 46.4731C24.7592 44.9434 25.3572 43.4896 26.4514 42.3954C27.5304 41.3164 29.0384 40.6686 30.5464 40.7119C31.5344 40.7357 32.4855 41.0022 33.324 41.4789C34.5309 42.1701 36.0714 41.7584 36.769 40.5667L38.2077 38.1682C38.5284 37.6157 38.6215 36.9224 38.4504 36.2832C38.2814 35.6441 37.8567 35.0894 37.2847 34.7622C35.9457 33.9909 34.9902 32.7472 34.5937 31.2566C34.2015 29.7941 34.416 28.1972 35.1809 26.8821C35.6792 26.0154 36.4094 25.2852 37.2847 24.7826C38.459 24.0957 38.8707 22.5596 38.1882 21.3636C38.16 21.3159 38.134 21.2661 38.1124 21.2141L36.8427 19.0127C36.1515 17.8102 34.6132 17.3964 33.4064 18.0832C32.102 18.8546 30.5507 19.0756 29.06 18.6834C27.5715 18.2977 26.3235 17.3552 25.5457 16.0249C25.1215 15.3168 24.8622 14.5097 24.789 13.6772C22.1034 14.7449 19.7876 16.743 18.2653 19.3819C17.4587 20.7804 16.8974 22.2963 16.5442 23.8807C14.7361 25.2188 13.5616 27.367 13.5616 29.7835C13.5616 32.467 15.0101 34.8178 17.1662 36.0963ZM17.1662 36.0963C16.0666 32.0962 15.6748 27.781 16.5442 23.8807C17.7629 22.9788 19.2693 22.445 20.898 22.445C24.9431 22.445 28.2343 25.7383 28.2343 29.7835C28.2343 33.8286 24.9431 37.1176 20.898 37.1176C19.5364 37.1176 18.2602 36.745 17.1662 36.0963ZM47.9075 0C48.2442 3.07094 47.0098 6.15734 45.1757 8.37443C43.3416 10.5929 40.3313 12.316 37.3846 12.0883C36.983 9.07816 38.4713 5.93744 40.1707 3.97518C42.067 1.75931 45.2638 0.106109 47.9075 0ZM16.8116 29.7835C16.8116 27.5301 18.6446 25.695 20.898 25.695C23.1513 25.695 24.9843 27.5301 24.9843 29.7835C24.9843 32.0368 23.1513 33.8676 20.898 33.8676C18.6446 33.8676 16.8116 32.0368 16.8116 29.7835Z" fill="white"/>
</svg>
