<svg width="21" height="20" viewBox="0 0 21 20" fill="none" xmlns="http://www.w3.org/2000/svg">
<path fill-rule="evenodd" clip-rule="evenodd" d="M10.9313 2.03158C10.8379 2.03158 10.608 2.05716 10.4859 2.30069L8.61183 6.03647C8.31523 6.62687 7.74358 7.03718 7.08264 7.13131L2.88713 7.73399C2.61003 7.7739 2.51561 7.97854 2.48687 8.06449C2.46121 8.14737 2.42016 8.35816 2.61105 8.54029L5.6448 11.4462C6.12818 11.9098 6.34781 12.5779 6.23287 13.2318L5.51856 17.3349C5.47443 17.5917 5.63556 17.7411 5.7074 17.7923C5.78335 17.8496 5.98655 17.9631 6.238 17.8322L9.98913 15.8932C10.5803 15.5893 11.2843 15.5893 11.8734 15.8932L15.6235 17.8311C15.876 17.9611 16.0792 17.8475 16.1562 17.7923C16.228 17.7411 16.3891 17.5917 16.345 17.3349L15.6286 13.2318C15.5137 12.5779 15.7333 11.9098 16.2167 11.4462L19.2505 8.54029C19.4424 8.35816 19.4013 8.14635 19.3746 8.06449C19.3469 7.97854 19.2525 7.7739 18.9754 7.73399L14.7799 7.13131C14.12 7.03718 13.5483 6.62687 13.2517 6.03544L11.3757 2.30069C11.2546 2.05716 11.0247 2.03158 10.9313 2.03158ZM6.00195 19.4263C5.57809 19.4263 5.1573 19.2933 4.79707 19.0314C4.17513 18.5771 3.87032 17.827 4.00272 17.0719L4.71702 12.9688C4.74371 12.8163 4.69136 12.6618 4.57847 12.5534L1.54473 9.64741C0.986419 9.11432 0.78629 8.32644 1.02234 7.59483C1.26044 6.85504 1.89059 6.32604 2.6675 6.21553L6.86302 5.61285C7.02517 5.59034 7.16475 5.49109 7.23454 5.34989L9.10959 1.61308C9.45545 0.924456 10.1533 0.49675 10.9313 0.49675C11.7092 0.49675 12.4071 0.924456 12.753 1.61308L14.629 5.34886C14.6998 5.49109 14.8384 5.59034 14.9995 5.61285L19.195 6.21553C19.972 6.32604 20.6021 6.85504 20.8402 7.59483C21.0763 8.32644 20.8751 9.11432 20.3168 9.64741L17.283 12.5534C17.1702 12.6618 17.1188 12.8163 17.1455 12.9678L17.8609 17.0719C17.9922 17.8281 17.6874 18.5781 17.0644 19.0314C16.4333 19.4928 15.6112 19.5553 14.9143 19.193L11.1653 17.2561C11.0185 17.1804 10.843 17.1804 10.6962 17.2561L6.94717 19.1941C6.64749 19.3496 6.32421 19.4263 6.00195 19.4263Z" fill="#323232"/>
</svg>
