<svg width="33" height="31" viewBox="0 0 33 31" fill="none" xmlns="http://www.w3.org/2000/svg">
<path fill-rule="evenodd" clip-rule="evenodd" d="M16.5832 2.5C16.4316 2.5 16.0582 2.54167 15.8599 2.93833L12.8166 9.02333C12.3349 9.985 11.4066 10.6533 10.3332 10.8067L3.5199 11.7883C3.0699 11.8533 2.91657 12.1867 2.8699 12.3267C2.82823 12.4617 2.76157 12.805 3.07157 13.1017L7.99824 17.835C8.78324 18.59 9.1399 19.6783 8.95323 20.7433L7.79323 27.4267C7.72157 27.845 7.98323 28.0883 8.0999 28.1717C8.22323 28.265 8.55324 28.45 8.96157 28.2367L15.0532 25.0783C16.0132 24.5833 17.1566 24.5833 18.1132 25.0783L24.2032 28.235C24.6132 28.4467 24.9432 28.2617 25.0682 28.1717C25.1849 28.0883 25.4466 27.845 25.3749 27.4267L24.2116 20.7433C24.0249 19.6783 24.3816 18.59 25.1666 17.835L30.0932 13.1017C30.4049 12.805 30.3382 12.46 30.2949 12.3267C30.2499 12.1867 30.0966 11.8533 29.6466 11.7883L22.8332 10.8067C21.7616 10.6533 20.8332 9.985 20.3516 9.02167L17.3049 2.93833C17.1082 2.54167 16.7349 2.5 16.5832 2.5ZM8.57824 30.8333C7.8899 30.8333 7.20657 30.6167 6.62157 30.19C5.61157 29.45 5.11657 28.2283 5.33157 26.9983L6.49157 20.315C6.5349 20.0667 6.4499 19.815 6.26657 19.6383L1.3399 14.905C0.433234 14.0367 0.108234 12.7533 0.491568 11.5617C0.878234 10.3567 1.90157 9.495 3.16323 9.315L9.97657 8.33333C10.2399 8.29667 10.4666 8.135 10.5799 7.905L13.6249 1.81833C14.1866 0.696667 15.3199 0 16.5832 0C17.8466 0 18.9799 0.696667 19.5416 1.81833L22.5882 7.90333C22.7032 8.135 22.9282 8.29667 23.1899 8.33333L30.0032 9.315C31.2649 9.495 32.2882 10.3567 32.6749 11.5617C33.0582 12.7533 32.7316 14.0367 31.8249 14.905L26.8982 19.6383C26.7149 19.815 26.6316 20.0667 26.6749 20.3133L27.8366 26.9983C28.0499 28.23 27.5549 29.4517 26.5432 30.19C25.5182 30.9417 24.1832 31.0433 23.0516 30.4533L16.9632 27.2983C16.7249 27.175 16.4399 27.175 16.2016 27.2983L10.1132 30.455C9.62657 30.7083 9.10157 30.8333 8.57824 30.8333Z" fill="white"/>
</svg>
