<svg width="31" height="29" viewBox="0 0 31 29" fill="none" xmlns="http://www.w3.org/2000/svg">
<path d="M24.131 17.8835C23.7533 18.2495 23.5798 18.7789 23.6658 19.2981L24.9623 26.4731C25.0717 27.0812 24.815 27.6966 24.306 28.0481C23.8073 28.4126 23.1437 28.4564 22.5998 28.1647L16.1408 24.796C15.9163 24.6764 15.6669 24.6122 15.4117 24.6049H15.0165C14.8794 24.6254 14.7452 24.6691 14.6227 24.7362L8.16229 28.121C7.84292 28.2814 7.48125 28.3383 7.12688 28.2814C6.26354 28.1181 5.6875 27.2956 5.82896 26.4279L7.12688 19.2529C7.21292 18.7293 7.03938 18.197 6.66167 17.8251L1.39563 12.721C0.95521 12.2937 0.802085 11.652 1.00333 11.0731C1.19875 10.4956 1.6975 10.0741 2.29979 9.97931L9.54771 8.92785C10.099 8.87098 10.5831 8.53556 10.831 8.03973L14.0248 1.49181C14.1006 1.34598 14.1983 1.21181 14.3165 1.09806L14.4477 0.995981C14.5162 0.920147 14.595 0.857439 14.6825 0.806397L14.8415 0.748064L15.0894 0.645981H15.7033C16.2517 0.702856 16.7344 1.03098 16.9867 1.52098L20.2227 8.03973C20.456 8.51661 20.9096 8.84765 21.4331 8.92785L28.681 9.97931C29.2935 10.0668 29.8054 10.4897 30.0081 11.0731C30.1992 11.6579 30.0344 12.2995 29.5852 12.721L24.131 17.8835Z" fill="#323232"/>
</svg>
